HIERARCHY
ROOT joint_0
{
	OFFSET 0.000000 0.000000 0.000000
	CHANNELS 6 Xposition Yposition Zposition Zrotation Yrotation Xrotation 
	JOINT joint_1
	{
		OFFSET 0.587158 0.057678 95.682007
		CHANNELS 3 Zrotation Yrotation Xrotation
		JOINT joint_2
		{
			OFFSET -7.116699 -0.219910 87.157959
			CHANNELS 3 Zrotation Yrotation Xrotation
			JOINT joint_3
			{
				OFFSET -5.892822 -0.290222 87.151001
				CHANNELS 3 Zrotation Yrotation Xrotation
				JOINT joint_4
				{
					OFFSET 5.544678 -0.099609 123.768066
					CHANNELS 3 Zrotation Yrotation Xrotation
					JOINT joint_5
					{
						OFFSET 41.981201 4.519775 84.257935
						CHANNELS 3 Zrotation Yrotation Xrotation
						End Site
						{
							OFFSET 0.000000 0.000000 0.000000
						}
					}
				}
				JOINT joint_6
				{
					OFFSET 3.940918 -26.976501 69.308105
					CHANNELS 3 Zrotation Yrotation Xrotation
					JOINT joint_7
					{
						OFFSET 4.776123 -152.592468 -16.842041
						CHANNELS 3 Zrotation Yrotation Xrotation
						JOINT joint_8
						{
							OFFSET 54.421875 -30.424072 -248.864014
							CHANNELS 3 Zrotation Yrotation Xrotation
							JOINT joint_9
							{
								OFFSET 42.120117 -33.387878 -236.524963
								CHANNELS 3 Zrotation Yrotation Xrotation
								End Site
								{
									OFFSET 0.000000 0.000000 0.000000
								}
							}
						}
					}
				}
				JOINT joint_10
				{
					OFFSET 2.312012 26.904114 69.425049
					CHANNELS 3 Zrotation Yrotation Xrotation
					JOINT joint_11
					{
						OFFSET 0.971436 152.197815 -20.626953
						CHANNELS 3 Zrotation Yrotation Xrotation
						JOINT joint_12
						{
							OFFSET 49.954102 28.991455 -249.970093
							CHANNELS 3 Zrotation Yrotation Xrotation
							JOINT joint_13
							{
								OFFSET 48.146973 19.598389 -236.919922
								CHANNELS 3 Zrotation Yrotation Xrotation
								End Site
								{
									OFFSET 0.000000 0.000000 0.000000
								}
							}
						}
					}
				}
			}
		}
	}
	JOINT joint_14
	{
		OFFSET 16.305664 -89.442932 -108.224976
		CHANNELS 3 Zrotation Yrotation Xrotation
		JOINT joint_15
		{
			OFFSET -22.282471 13.437134 -412.904968
			CHANNELS 3 Zrotation Yrotation Xrotation
			JOINT joint_16
			{
				OFFSET -45.426025 14.484802 -445.892029
				CHANNELS 3 Zrotation Yrotation Xrotation
				JOINT joint_17
				{
					OFFSET 173.389404 -9.944031 -76.473001
					CHANNELS 3 Zrotation Yrotation Xrotation
					End Site
					{
						OFFSET 0.000000 0.000000 0.000000
					}
				}
			}
		}
	}
	JOINT joint_18
	{
		OFFSET 13.392822 89.408875 -108.653992
		CHANNELS 3 Zrotation Yrotation Xrotation
		JOINT joint_19
		{
			OFFSET -29.032959 24.483521 -411.977966
			CHANNELS 3 Zrotation Yrotation Xrotation
			JOINT joint_20
			{
				OFFSET -30.530029 28.986328 -446.453018
				CHANNELS 3 Zrotation Yrotation Xrotation
				JOINT joint_21
				{
					OFFSET 170.330078 33.400757 -76.698997
					CHANNELS 3 Zrotation Yrotation Xrotation
					End Site
					{
						OFFSET 0.000000 0.000000 0.000000
					}
				}
			}
		}
	}
}
MOTION
Frames: 15
Frame Time: 0.016667
-2681.618896 817.249023 1065.312012 -0.726624 7.265755 -0.901698 -0.298637 -6.261347 0.322249 -0.194179 0.966057 -0.050082 -0.184171 -1.250178 0.054602 -0.310530 -17.349102 2.854966 0.000000 0.000000 0.000000 -0.486723 3.553235 2.469448 -0.229295 3.460158 0.160742 0.851130 -5.499967 0.298819 0.000000 0.000000 0.000000 -0.195161 3.602117 -0.254205 0.449312 3.691328 -0.382307 -0.785484 -3.456242 -2.499034 0.000000 0.000000 0.000000 -6.156063 -6.863945 -3.631139 -6.356120 -4.901411 0.105635 -5.875933 6.854030 -2.144970 0.000000 0.000000 0.000000 2.152709 -8.657871 0.180534 2.706909 -0.731777 1.052239 2.941613 2.595280 0.810612 0.000000 0.000000 0.000000 
-2681.894531 817.192017 1065.288940 -0.741774 7.241439 -0.892291 -0.302102 -6.253822 0.346691 -0.200475 0.963972 -0.057427 -0.189617 -1.246579 0.059479 -0.306979 -17.338290 2.849448 0.000000 0.000000 0.000000 -0.467750 3.561242 2.471191 -0.231197 3.470237 0.153933 0.852486 -5.500962 0.304066 0.000000 0.000000 0.000000 -0.188104 3.611377 -0.286720 0.452995 3.699863 -0.369838 -0.786273 -3.461686 -2.501276 0.000000 0.000000 0.000000 -6.151378 -6.874730 -3.636635 -6.350389 -4.867703 0.098585 -5.871466 6.833007 -2.144289 0.000000 0.000000 0.000000 2.161624 -8.650325 0.172975 2.714785 -0.724280 1.053204 2.949479 2.603348 0.812575 0.000000 0.000000 0.000000 
-2682.177979 817.129211 1065.264038 -0.752401 7.213551 -0.882858 -0.307896 -6.239929 0.373905 -0.209580 0.962931 -0.065468 -0.197773 -1.242837 0.065088 -0.303476 -17.325695 2.844109 0.000000 0.000000 0.000000 -0.445701 3.566518 2.477637 -0.234037 3.477708 0.141151 0.853052 -5.498761 0.307315 0.000000 0.000000 0.000000 -0.178935 3.617949 -0.322964 0.456678 3.705392 -0.356042 -0.786594 -3.468371 -2.500693 0.000000 0.000000 0.000000 -6.148517 -6.882706 -3.639617 -6.346098 -4.831921 0.087634 -5.868799 6.811222 -2.144431 0.000000 0.000000 0.000000 2.169387 -8.640333 0.166342 2.721459 -0.715535 1.053604 2.955931 2.609649 0.814250 0.000000 0.000000 0.000000 
-2682.453125 817.056091 1065.241943 -0.758417 7.189183 -0.873097 -0.311821 -6.228903 0.397411 -0.216414 0.960700 -0.072520 -0.203785 -1.238811 0.070029 -0.301238 -17.312231 2.839428 0.000000 0.000000 0.000000 -0.433804 3.573096 2.486426 -0.237087 3.485293 0.127522 0.853010 -5.494419 0.308966 0.000000 0.000000 0.000000 -0.175294 3.622259 -0.356718 0.459488 3.709323 -0.344811 -0.786169 -3.470504 -2.498056 0.000000 0.000000 0.000000 -6.147083 -6.892635 -3.642009 -6.343219 -4.797505 0.077011 -5.867415 6.790836 -2.145052 0.000000 0.000000 0.000000 2.175085 -8.633159 0.159984 2.726113 -0.709153 1.054779 2.960901 2.619589 0.814544 0.000000 0.000000 0.000000 
-2682.713867 816.970337 1065.225952 -0.756752 7.171718 -0.862243 -0.313247 -6.225636 0.412301 -0.219588 0.959285 -0.074840 -0.206730 -1.235933 0.071226 -0.302067 -17.298874 2.838357 0.000000 0.000000 0.000000 -0.439500 3.582594 2.501180 -0.240355 3.493683 0.112635 0.852184 -5.489309 0.306774 0.000000 0.000000 0.000000 -0.179267 3.623544 -0.383747 0.460535 3.711098 -0.339209 -0.784177 -3.462690 -2.491285 0.000000 0.000000 0.000000 -6.147990 -6.906202 -3.645027 -6.342896 -4.766765 0.068590 -5.868174 6.773475 -2.146433 0.000000 0.000000 0.000000 2.177294 -8.631826 0.152711 2.727280 -0.706804 1.058222 2.963435 2.636647 0.812344 0.000000 0.000000 0.000000 
-2682.967041 816.875366 1065.213013 -0.750604 7.157634 -0.851057 -0.312693 -6.224680 0.424085 -0.220536 0.956582 -0.077487 -0.207392 -1.233346 0.073143 -0.303455 -17.284360 2.836399 0.000000 0.000000 0.000000 -0.455847 3.593641 2.517901 -0.243854 3.502387 0.096701 0.850845 -5.483015 0.302712 0.000000 0.000000 0.000000 -0.189316 3.622858 -0.409257 0.460821 3.711645 -0.335922 -0.781370 -3.450897 -2.481901 0.000000 0.000000 0.000000 -6.150492 -6.921733 -3.647611 -6.344182 -4.737466 0.060714 -5.870365 6.758172 -2.148320 0.000000 0.000000 0.000000 2.177855 -8.633366 0.145528 2.726859 -0.706640 1.062326 2.964841 2.656702 0.809047 0.000000 0.000000 0.000000 
-2683.204834 816.769714 1065.202026 -0.747032 7.144592 -0.840441 -0.310655 -6.228929 0.433014 -0.219372 0.955734 -0.076200 -0.206400 -1.232065 0.072292 -0.305327 -17.268485 2.834913 0.000000 0.000000 0.000000 -0.469254 3.606805 2.532117 -0.247296 3.513666 0.083141 0.849202 -5.475088 0.298684 0.000000 0.000000 0.000000 -0.198516 3.623907 -0.433472 0.462098 3.713932 -0.329765 -0.780381 -3.446113 -2.478779 0.000000 0.000000 0.000000 -6.151951 -6.938058 -3.649148 -6.344289 -4.707167 0.052724 -5.871470 6.741609 -2.149817 0.000000 0.000000 0.000000 2.179240 -8.634730 0.139613 2.727343 -0.706386 1.066297 2.967022 2.675597 0.806325 0.000000 0.000000 0.000000 
-2683.420410 816.653259 1065.193970 -0.749134 7.132231 -0.831040 -0.306049 -6.242327 0.443160 -0.215719 0.958477 -0.077381 -0.202674 -1.235609 0.072335 -0.308002 -17.247355 2.834175 0.000000 0.000000 0.000000 -0.476210 3.625451 2.538423 -0.250090 3.531516 0.077068 0.847243 -5.465612 0.294842 0.000000 0.000000 0.000000 -0.207524 3.630326 -0.456878 0.465411 3.721806 -0.318787 -0.782767 -3.454841 -2.487150 0.000000 0.000000 0.000000 -6.151630 -6.955665 -3.649263 -6.342398 -4.674421 0.044652 -5.870714 6.723302 -2.150618 0.000000 0.000000 0.000000 2.183036 -8.634632 0.135563 2.730286 -0.706408 1.069549 2.971335 2.691552 0.805133 0.000000 0.000000 0.000000 
-2683.622314 816.527039 1065.187988 -0.753550 7.121024 -0.822113 -0.299496 -6.259503 0.451276 -0.209767 0.960821 -0.076994 -0.196798 -1.239410 0.071895 -0.311092 -17.226244 2.833699 0.000000 0.000000 0.000000 -0.481764 3.646317 2.541489 -0.252795 3.551892 0.073333 0.845060 -5.455415 0.290752 0.000000 0.000000 0.000000 -0.216969 3.638331 -0.479985 0.469698 3.731437 -0.305203 -0.786869 -3.471496 -2.500909 0.000000 0.000000 0.000000 -6.150284 -6.974406 -3.648492 -6.339352 -4.640479 0.036501 -5.868888 6.703689 -2.151037 0.000000 0.000000 0.000000 2.187599 -8.634952 0.132563 2.734140 -0.705758 1.072663 2.976341 2.705639 0.804618 0.000000 0.000000 0.000000 
-2683.821777 816.400085 1065.172974 -0.758117 7.109712 -0.812649 -0.293431 -6.271637 0.459100 -0.204419 0.962493 -0.077136 -0.191426 -1.241250 0.072349 -0.313293 -17.208910 2.832241 0.000000 0.000000 0.000000 -0.485712 3.662988 2.547201 -0.256843 3.568047 0.061515 0.843570 -5.447608 0.288559 0.000000 0.000000 0.000000 -0.222566 3.644040 -0.505637 0.474058 3.738229 -0.289714 -0.790766 -3.489249 -2.513158 0.000000 0.000000 0.000000 -6.149153 -6.992395 -3.648424 -6.336669 -4.607008 0.029118 -5.867433 6.680743 -2.151810 0.000000 0.000000 0.000000 2.192422 -8.636286 0.128671 2.738395 -0.702168 1.076542 2.981354 2.716391 0.804757 0.000000 0.000000 0.000000 
-2684.027100 816.279541 1065.142944 -0.761419 7.096248 -0.801146 -0.287647 -6.271798 0.466497 -0.199636 0.961927 -0.078559 -0.186493 -1.239127 0.073315 -0.315262 -17.198882 2.831347 0.000000 0.000000 0.000000 -0.490392 3.672600 2.557991 -0.263152 3.576715 0.036050 0.843477 -5.443702 0.290952 0.000000 0.000000 0.000000 -0.224698 3.644633 -0.532905 0.477890 3.739350 -0.274034 -0.793879 -3.509614 -2.520367 0.000000 0.000000 0.000000 -6.148661 -7.006859 -3.651579 -6.335114 -4.575441 0.023488 -5.867032 6.652511 -2.153340 0.000000 0.000000 0.000000 2.197423 -8.638209 0.121325 2.742836 -0.693269 1.082049 2.985929 2.721834 0.805739 0.000000 0.000000 0.000000 
-2684.230469 816.159241 1065.104004 -0.764709 7.082762 -0.788739 -0.281813 -6.266309 0.472665 -0.194761 0.960122 -0.079291 -0.181533 -1.235144 0.074041 -0.317116 -17.193930 2.830920 0.000000 0.000000 0.000000 -0.495909 3.678264 2.572273 -0.270843 3.581112 0.002120 0.844108 -5.442791 0.294906 0.000000 0.000000 0.000000 -0.224016 3.642705 -0.562208 0.481683 3.737539 -0.256975 -0.796686 -3.531334 -2.525433 0.000000 0.000000 0.000000 -6.148341 -7.020689 -3.655887 -6.333904 -4.544327 0.018568 -5.866993 6.620812 -2.155224 0.000000 0.000000 0.000000 2.202678 -8.641485 0.112227 2.747603 -0.681017 1.089057 2.990427 2.723419 0.807439 0.000000 0.000000 0.000000 
-2684.424805 816.029724 1065.062988 -0.768734 7.071768 -0.777885 -0.276066 -6.260456 0.480035 -0.190186 0.958390 -0.081217 -0.176774 -1.231854 0.075074 -0.319497 -17.191997 2.832399 0.000000 0.000000 0.000000 -0.502621 3.681642 2.591163 -0.278779 3.582882 -0.035050 0.843888 -5.440873 0.294647 0.000000 0.000000 0.000000 -0.226239 3.642051 -0.593313 0.485657 3.737412 -0.239158 -0.798906 -3.549200 -2.529169 0.000000 0.000000 0.000000 -6.147925 -7.037494 -3.656959 -6.332206 -4.511633 0.012165 -5.866657 6.588543 -2.157017 0.000000 0.000000 0.000000 2.208050 -8.646734 0.104713 2.752635 -0.669311 1.097073 2.995275 2.724824 0.809327 0.000000 0.000000 0.000000 
-2684.617676 815.886292 1065.021973 -0.775397 7.060207 -0.769119 -0.270139 -6.253218 0.487623 -0.185390 0.960170 -0.081448 -0.171990 -1.229270 0.074709 -0.320383 -17.198876 2.832539 0.000000 0.000000 0.000000 -0.509275 3.681344 2.618196 -0.286951 3.580637 -0.076971 0.841975 -5.437586 0.285695 0.000000 0.000000 0.000000 -0.232450 3.641784 -0.628612 0.490084 3.738238 -0.218375 -0.800289 -3.561061 -2.531209 0.000000 0.000000 0.000000 -6.146988 -7.057242 -3.653733 -6.329298 -4.472628 0.002757 -5.865487 6.555118 -2.158525 0.000000 0.000000 0.000000 2.214049 -8.651617 0.099376 2.758286 -0.656629 1.106952 3.000780 2.726028 0.811549 0.000000 0.000000 0.000000 
-2684.801758 815.733704 1064.979980 -0.783547 7.051599 -0.761784 -0.263104 -6.246542 0.495280 -0.179497 0.963013 -0.081803 -0.166077 -1.228269 0.074694 -0.322242 -17.207836 2.834768 0.000000 0.000000 0.000000 -0.521264 3.679121 2.650190 -0.295505 3.575648 -0.122900 0.839324 -5.433775 0.272730 0.000000 0.000000 0.000000 -0.244903 3.642634 -0.666753 0.494779 3.741050 -0.196509 -0.800890 -3.568861 -2.531005 0.000000 0.000000 0.000000 -6.145675 -7.080736 -3.647117 -6.325566 -4.431941 -0.008779 -5.863774 6.521277 -2.159822 0.000000 0.000000 0.000000 2.220421 -8.658929 0.095259 2.764446 -0.644324 1.118241 3.006896 2.727148 0.814058 0.000000 0.000000 0.000000 
